<svg width="108" height="28" viewBox="0 0 108 28" fill="none" xmlns="http://www.w3.org/2000/svg">
<g id="Group 22">
<g id="Group">
<g id="Group_2">
<g id="Group_3">
<path id="Vector" d="M23.1276 11.0607C23.1822 11.6546 23.2116 12.3997 23.2116 13.2937C23.2116 14.1836 23.0353 15.2749 22.6827 16.5677C22.3301 17.8563 21.6879 18.9896 20.7603 19.9676C18.8736 21.9949 16.2796 23.0065 12.9783 23.0065C8.96563 23.0065 5.7966 22.0201 3.47544 20.0431C1.15848 18.0682 0 15.4826 0 12.2863C0 9.09212 1.17527 6.50233 3.52581 4.52116C5.87635 2.5358 8.97612 1.54102 12.8272 1.54102C14.3047 1.54102 15.7108 1.69002 17.0498 1.98594C18.3867 2.27766 19.4969 2.65752 20.3825 3.12763L20.4413 8.20647H20.2062C19.8704 6.94726 19.308 5.89581 18.5189 5.05003C17.1086 3.53478 15.2029 2.77505 12.802 2.77505C10.4011 2.77505 8.46614 3.63132 7.00125 5.34385C5.54056 7.05639 4.81021 9.32298 4.81021 12.1436C4.81021 14.9643 5.56994 17.2602 7.09359 19.0273C8.61514 20.7965 10.7138 21.7116 13.3897 21.7724C16.2817 21.7724 18.5818 20.849 20.2902 19.0022C22.0027 17.1511 22.859 14.6432 22.859 11.4804C22.859 11.3419 22.859 11.2013 22.859 11.0607H23.1276Z" fill="#3B3B3B"/>
</g>
</g>
</g>
<g id="Group_4">
<g id="Group_5">
<g id="Group_6">
<path id="Vector_2" d="M38.6252 1.81576C39.1667 1.27429 39.8131 1.00146 40.5644 1.00146C41.32 1.00146 41.9664 1.27429 42.5036 1.81576C43.0451 2.35932 43.3179 3.00572 43.3179 3.75495C43.3179 4.50629 43.0451 5.15268 42.5036 5.69415C41.9664 6.23771 41.32 6.50844 40.5644 6.50844C39.8131 6.50844 39.1667 6.23771 38.6252 5.69415C38.088 5.15268 37.8193 4.50629 37.8193 3.75495C37.8193 3.00572 38.088 2.35932 38.6252 1.81576ZM38.1803 9.3123V22.7607H42.8226V9.3123H38.1803Z" fill="#585858"/>
</g>
</g>
</g>
<g id="Group_7">
<g id="Group_8">
<g id="Group_9">
<path id="Vector_3" d="M45.7072 21.0973C44.448 19.7269 43.8184 18.0458 43.8184 16.0521C43.8184 14.0541 44.448 12.3668 45.7072 10.99C46.9664 9.60907 48.5635 8.9165 50.5006 8.9165C52.2845 8.9165 53.7536 9.47686 54.9079 10.5955V9.31106H59.5502V22.7595H54.9582V21.24H54.9079C53.7536 22.5161 52.2845 23.1541 50.5006 23.1541C48.5635 23.1541 46.9664 22.4699 45.7072 21.0973ZM49.6443 13.7687C49.0441 14.3626 48.7461 15.1244 48.7461 16.0521C48.7461 16.9755 49.0336 17.731 49.6108 18.3187C50.1858 18.9021 50.9476 19.1917 51.8941 19.1917C52.8008 19.1917 53.5437 18.8958 54.1271 18.3019C54.7148 17.71 55.0086 16.9587 55.0086 16.0521C55.0086 15.1244 54.7064 14.3626 54.102 13.7687C53.5017 13.1769 52.7672 12.8788 51.8941 12.8788C50.998 12.8788 50.2488 13.1769 49.6443 13.7687Z" fill="#585858"/>
</g>
</g>
</g>
<g id="Group_10">
<g id="Group_11">
<g id="Group_12">
<path id="Vector_4" d="M62.1619 9.31491V4.30322H66.8042V9.31491H69.6332V12.8575H66.8042V17.1304C66.8042 18.3687 67.1525 18.9857 67.8535 18.9857C68.0256 18.9857 68.2082 18.9521 68.3992 18.885C68.5944 18.8136 68.7434 18.7422 68.8441 18.6751L69.0036 18.566L70.1621 22.3184C69.1652 22.8767 68.0298 23.1579 66.7538 23.1579C65.8744 23.1579 65.121 23.0068 64.4956 22.7046C63.8681 22.3982 63.3917 21.9868 63.0685 21.4705C62.7432 20.9501 62.5102 20.4086 62.3717 19.842C62.2311 19.2711 62.1619 18.6646 62.1619 18.0203V12.8575H60.2227V9.31491H62.1619Z" fill="#585858"/>
</g>
</g>
</g>
<g id="Group_13">
<g id="Group_14">
<g id="Group_15">
<path id="Vector_5" d="M70.8752 1.81429C71.4167 1.27283 72.0631 1 72.8144 1C73.57 1 74.2164 1.27283 74.7536 1.81429C75.2951 2.35786 75.5679 3.00425 75.5679 3.75349C75.5679 4.50482 75.2951 5.15122 74.7536 5.69268C74.2164 6.23624 73.57 6.50698 72.8144 6.50698C72.0631 6.50698 71.4167 6.23624 70.8752 5.69268C70.338 5.15122 70.0693 4.50482 70.0693 3.75349C70.0693 3.00425 70.338 2.35786 70.8752 1.81429ZM70.4303 9.31083V22.7593H75.0726V9.31083H70.4303Z" fill="#585858"/>
</g>
</g>
</g>
<g id="Group_16">
<g id="Group_17">
<g id="Group_18">
<path id="Vector_6" d="M80.44 9.31494L83.7223 16.6268L86.9963 9.31494H92.5033L85.2922 22.7634H82.1441L74.9414 9.31494H80.44Z" fill="#585858"/>
</g>
</g>
</g>
<g id="Group_19">
<g id="Group_20">
<g id="Group_21">
<path id="Vector_7" d="M93.1554 21.1022C91.8962 19.7318 91.2666 18.0507 91.2666 16.057C91.2666 14.059 91.8962 12.3716 93.1554 10.9949C94.4146 9.61396 96.0118 8.92139 97.9488 8.92139C99.7327 8.92139 101.202 9.48174 102.356 10.6003V9.31594H106.998V22.7644H102.406V21.2449H102.356C101.202 22.5209 99.7327 23.1589 97.9488 23.1589C96.0118 23.1589 94.4146 22.4748 93.1554 21.1022ZM97.0926 13.7736C96.4924 14.3675 96.1943 15.1293 96.1943 16.057C96.1943 16.9804 96.4819 17.7359 97.059 18.3235C97.634 18.907 98.3959 19.1966 99.3424 19.1966C100.249 19.1966 100.992 18.9007 101.575 18.3068C102.163 17.7149 102.457 16.9636 102.457 16.057C102.457 15.1293 102.155 14.3675 101.55 13.7736C100.95 13.1817 100.215 12.8837 99.3424 12.8837C98.4462 12.8837 97.697 13.1817 97.0926 13.7736Z" fill="#585858"/>
</g>
</g>
</g>
<g id="Clip path group">
<mask id="mask0_145_2708" style="mask-type:luminance" maskUnits="userSpaceOnUse" x="79" y="0" width="29" height="7">
<g id="7f83aacc18">
<path id="Vector_8" d="M79 0H107.204V6.44719H79V0Z" fill="white"/>
</g>
</mask>
<g mask="url(#mask0_145_2708)">
<g id="Group_22">
<g id="Clip path group_2">
<mask id="mask1_145_2708" style="mask-type:luminance" maskUnits="userSpaceOnUse" x="78" y="0" width="30" height="7">
<g id="f0cc0503eb">
<path id="Vector_9" d="M82.3171 0H103.883C105.715 0 107.201 1.4439 107.201 3.2236C107.201 5.00539 105.715 6.44719 103.883 6.44719H82.3171C80.4849 6.44719 78.999 5.00539 78.999 3.2236C78.999 1.4439 80.4849 0 82.3171 0Z" fill="white"/>
</g>
</mask>
<g mask="url(#mask1_145_2708)">
<g id="Group_23">
<path id="Vector_10" d="M82.3171 0H103.883C105.715 0 107.201 1.4439 107.201 3.2236C107.201 5.00539 105.715 6.44719 103.883 6.44719H82.3171C80.4849 6.44719 78.999 5.00539 78.999 3.2236C78.999 1.4439 80.4849 0 82.3171 0Z" stroke="#3B3B3B" stroke-width="0.796726"/>
</g>
</g>
</g>
</g>
</g>
</g>
<g id="Group_24">
<g id="Group_25">
<g id="Group_26">
<path id="Vector_11" d="M82.9598 1.7749C83.2159 1.7749 83.4383 1.83996 83.623 1.96798C83.8077 2.0981 83.9441 2.27439 84.0344 2.49685C84.1288 2.71512 84.1771 2.95647 84.1771 3.2188C84.1771 3.48744 84.1288 3.73089 84.0344 3.94915C83.9441 4.16741 83.8077 4.34161 83.623 4.46963C83.4383 4.59975 83.2159 4.66271 82.9598 4.66271H81.9441C81.8937 4.66271 81.8475 4.64382 81.8097 4.60394C81.7699 4.56617 81.751 4.5179 81.751 4.46123V1.97638C81.751 1.92181 81.7699 1.87354 81.8097 1.83367C81.8475 1.79589 81.8937 1.7749 81.9441 1.7749H82.9598ZM82.9179 4.28494C83.197 4.28494 83.4068 4.1884 83.5475 3.99112C83.686 3.78965 83.7573 3.53361 83.7573 3.2188C83.7573 2.9124 83.686 2.65635 83.5475 2.45488C83.4068 2.2534 83.197 2.15267 82.9179 2.15267H82.1539V4.28494H82.9179Z" fill="#3B3B3B"/>
</g>
</g>
</g>
<g id="Group_27">
<g id="Group_28">
<g id="Group_29">
<path id="Vector_12" d="M86.5739 4.28397C86.6285 4.28397 86.6767 4.30495 86.7166 4.34273C86.7544 4.3826 86.7754 4.42668 86.7754 4.47705C86.7754 4.53371 86.7544 4.57778 86.7166 4.61136C86.6767 4.64494 86.6285 4.66173 86.5739 4.66173H85.1384C85.088 4.66173 85.0419 4.64284 85.0041 4.60297C84.9642 4.56519 84.9453 4.51692 84.9453 4.46026V1.9754C84.9453 1.92083 84.9642 1.87256 85.0041 1.83269C85.0419 1.79491 85.088 1.77393 85.1384 1.77393H86.5739C86.6285 1.77393 86.6767 1.79491 86.7166 1.83269C86.7544 1.86627 86.7754 1.91244 86.7754 1.96701C86.7754 2.02367 86.7544 2.06774 86.7166 2.10132C86.6767 2.1349 86.6285 2.15169 86.5739 2.15169H85.3483V2.99956H86.3892C86.4438 2.99956 86.4921 3.01635 86.5319 3.04993C86.5697 3.08351 86.5907 3.12968 86.5907 3.18425C86.5907 3.24721 86.5697 3.29338 86.5319 3.32696C86.4921 3.35634 86.4438 3.36893 86.3892 3.36893H85.3483V4.28397H86.5739Z" fill="#3B3B3B"/>
</g>
</g>
</g>
<g id="Group_30">
<g id="Group_31">
<g id="Group_32">
<path id="Vector_13" d="M88.4181 4.70515C88.2166 4.70515 88.0361 4.67577 87.8808 4.6212C87.7297 4.56664 87.5828 4.47429 87.4443 4.34418C87.3876 4.29381 87.3604 4.23924 87.3604 4.17628C87.3604 4.12591 87.3771 4.08184 87.4107 4.04196C87.4485 4.00419 87.4968 3.9832 87.5534 3.9832C87.5975 3.9832 87.6374 3.99789 87.671 4.02517C87.7822 4.13221 87.8934 4.20986 88.0067 4.26023C88.1243 4.3064 88.2586 4.32739 88.4097 4.32739C88.5818 4.32739 88.7287 4.28961 88.8462 4.20986C88.968 4.12591 89.0309 4.02517 89.0309 3.90765C89.0246 3.76284 88.9638 3.65161 88.8462 3.57186C88.7287 3.4942 88.5524 3.42914 88.3174 3.37878C88.0319 3.31791 87.8095 3.22347 87.6542 3.09335C87.5031 2.95904 87.4275 2.77855 87.4275 2.54769C87.4275 2.38609 87.4695 2.24338 87.5534 2.11956C87.6416 1.99783 87.7633 1.90129 87.9144 1.83414C88.0655 1.76698 88.2355 1.7334 88.4265 1.7334C88.5944 1.7334 88.7539 1.76278 88.905 1.81735C89.0561 1.87401 89.1778 1.94747 89.2744 2.03561C89.3352 2.09228 89.3667 2.15104 89.3667 2.2119C89.3667 2.26227 89.3457 2.30844 89.3079 2.34622C89.2744 2.38609 89.2324 2.40498 89.182 2.40498C89.1421 2.40498 89.1086 2.39449 89.0813 2.3714C89.0141 2.30005 88.9155 2.24128 88.7875 2.19511C88.6573 2.14474 88.5377 2.11956 88.4265 2.11956C88.2418 2.11956 88.0928 2.15943 87.9816 2.23709C87.8745 2.31054 87.8221 2.40918 87.8221 2.5309C87.8221 2.66522 87.8745 2.77015 87.9816 2.84151C88.0928 2.90867 88.2544 2.96743 88.4685 3.0178C88.6867 3.06397 88.863 3.11854 88.9973 3.1857C89.1317 3.24866 89.2345 3.3347 89.3079 3.44593C89.3856 3.55926 89.4255 3.70617 89.4255 3.89086C89.4255 4.04826 89.3793 4.18887 89.2912 4.3106C89.2009 4.43442 89.0771 4.53306 88.9218 4.60441C88.7707 4.67157 88.6028 4.70515 88.4181 4.70515Z" fill="#3B3B3B"/>
</g>
</g>
</g>
<g id="Group_33">
<g id="Group_34">
<g id="Group_35">
<path id="Vector_14" d="M90.5846 4.46026C90.5846 4.51692 90.5636 4.56519 90.5258 4.60297C90.486 4.64284 90.4377 4.66173 90.3831 4.66173C90.3202 4.66173 90.2698 4.64284 90.232 4.60297C90.1984 4.56519 90.1816 4.51692 90.1816 4.46026V1.9754C90.1816 1.92083 90.2005 1.87256 90.2404 1.83269C90.2782 1.79491 90.3265 1.77393 90.3831 1.77393C90.4377 1.77393 90.486 1.79491 90.5258 1.83269C90.5636 1.87256 90.5846 1.92083 90.5846 1.9754V4.46026Z" fill="#3B3B3B"/>
</g>
</g>
</g>
<g id="Group_36">
<g id="Group_37">
<g id="Group_38">
<path id="Vector_15" d="M93.6408 3.14226C93.6954 3.14226 93.7415 3.16324 93.7751 3.20102C93.8129 3.2409 93.8339 3.28917 93.8339 3.34373V4.26716C93.8339 4.34691 93.8003 4.40567 93.7331 4.44345C93.6093 4.5274 93.4729 4.59246 93.3218 4.63653C93.1707 4.6806 93.0133 4.70369 92.8517 4.70369C92.5768 4.70369 92.3249 4.64073 92.0962 4.51061C91.8653 4.37629 91.6848 4.1979 91.5505 3.97334C91.4204 3.74458 91.3574 3.49274 91.3574 3.21781C91.3574 2.94918 91.4204 2.70363 91.5505 2.47907C91.6848 2.25031 91.8653 2.06772 92.0962 1.93341C92.3249 1.79909 92.5768 1.73193 92.8517 1.73193C92.9902 1.73193 93.1245 1.74872 93.2546 1.7823C93.3827 1.81168 93.4981 1.85576 93.5988 1.91662C93.6324 1.93341 93.6576 1.95649 93.6744 1.98378C93.6912 2.01316 93.6996 2.04254 93.6996 2.07612C93.6996 2.13278 93.6786 2.18105 93.6408 2.21883C93.6009 2.25871 93.5569 2.27759 93.5065 2.27759C93.4666 2.27759 93.4309 2.2692 93.3974 2.25241C93.2169 2.16846 93.0364 2.12649 92.8517 2.12649C92.6544 2.12649 92.476 2.17476 92.3144 2.2692C92.1507 2.36574 92.0227 2.49586 91.9283 2.66375C91.8317 2.83165 91.7856 3.01634 91.7856 3.21781C91.7856 3.41928 91.8317 3.60397 91.9283 3.77187C92.0227 3.93556 92.1507 4.06568 92.3144 4.16642C92.476 4.26296 92.6544 4.30913 92.8517 4.30913C92.9461 4.30913 93.0448 4.29864 93.1455 4.27555C93.2504 4.25457 93.3407 4.22518 93.4141 4.1916V3.53681H92.9189C92.8622 3.53681 92.8139 3.52002 92.7761 3.48644C92.7363 3.44867 92.7174 3.4004 92.7174 3.34373C92.7174 3.28917 92.7363 3.2409 92.7761 3.20102C92.8139 3.16324 92.8622 3.14226 92.9189 3.14226H93.6408Z" fill="#3B3B3B"/>
</g>
</g>
</g>
<g id="Group_39">
<g id="Group_40">
<g id="Group_41">
<path id="Vector_16" d="M96.7961 1.77393C96.8465 1.77393 96.8885 1.79491 96.9221 1.83269C96.9556 1.86627 96.9724 1.90824 96.9724 1.95861V4.46026C96.9724 4.51692 96.9514 4.56519 96.9137 4.60297C96.8738 4.64284 96.8255 4.66173 96.7709 4.66173C96.7416 4.66173 96.7122 4.65963 96.6786 4.65334C96.6492 4.64284 96.6282 4.62605 96.6114 4.60297L94.9913 2.49588V4.47705C94.9913 4.53371 94.9745 4.57778 94.9409 4.61136C94.9073 4.64494 94.8653 4.66173 94.815 4.66173C94.7646 4.66173 94.7226 4.64494 94.689 4.61136C94.6555 4.57778 94.6387 4.53371 94.6387 4.47705V1.9754C94.6387 1.92083 94.6555 1.87256 94.689 1.83269C94.7268 1.79491 94.7751 1.77393 94.8318 1.77393C94.8653 1.77393 94.8947 1.78232 94.9241 1.79911C94.9577 1.8117 94.9787 1.82849 94.9913 1.84948L96.6114 3.96496V1.95861C96.6114 1.90824 96.6282 1.86627 96.6618 1.83269C96.6954 1.79491 96.7395 1.77393 96.7961 1.77393Z" fill="#3B3B3B"/>
</g>
</g>
</g>
<g id="Group_42">
<g id="Group_43">
<g id="Group_44">
<path id="Vector_17" d="M101.327 1.77539C101.388 1.77539 101.436 1.79638 101.47 1.83415C101.503 1.86773 101.52 1.9139 101.52 1.96847V3.55508C101.52 3.77335 101.472 3.97063 101.377 4.14272C101.281 4.31691 101.147 4.45123 100.974 4.54567C100.807 4.64221 100.616 4.68838 100.404 4.68838C100.19 4.68838 99.9965 4.64221 99.8244 4.54567C99.6565 4.45123 99.5243 4.31691 99.4298 4.14272C99.3333 3.97063 99.2871 3.77335 99.2871 3.55508V1.96847C99.2871 1.9139 99.306 1.86773 99.3459 1.83415C99.3836 1.79638 99.4319 1.77539 99.4886 1.77539C99.5432 1.77539 99.5914 1.79638 99.6313 1.83415C99.6691 1.87403 99.6901 1.9181 99.6901 1.96847V3.55508C99.6901 3.6957 99.7194 3.82372 99.7824 3.94124C99.8496 4.05457 99.9377 4.14272 100.051 4.20988C100.162 4.27284 100.28 4.30222 100.404 4.30222C100.538 4.30222 100.66 4.27284 100.773 4.20988C100.884 4.14272 100.974 4.05457 101.042 3.94124C101.109 3.82372 101.142 3.6957 101.142 3.55508V1.96847C101.142 1.9139 101.159 1.86773 101.193 1.83415C101.226 1.79638 101.27 1.77539 101.327 1.77539Z" fill="#3B3B3B"/>
</g>
</g>
</g>
<g id="Group_45">
<g id="Group_46">
<g id="Group_47">
<path id="Vector_18" d="M104.512 4.37045C104.533 4.40403 104.545 4.4439 104.545 4.48798C104.545 4.54464 104.525 4.59291 104.487 4.63069C104.447 4.66427 104.403 4.68106 104.352 4.68106C104.285 4.68106 104.231 4.65377 104.193 4.59711L103.395 3.52258L102.606 4.59711C102.566 4.65377 102.514 4.68106 102.447 4.68106C102.396 4.68106 102.354 4.66427 102.321 4.63069C102.287 4.59711 102.271 4.55933 102.271 4.51316C102.271 4.46279 102.287 4.41872 102.321 4.37884L103.169 3.22876L102.321 2.08707C102.291 2.04929 102.279 2.00732 102.279 1.96115C102.279 1.91078 102.298 1.86671 102.338 1.82683C102.375 1.78905 102.422 1.76807 102.472 1.76807C102.506 1.76807 102.535 1.77646 102.564 1.79325C102.592 1.80584 102.615 1.82473 102.631 1.85201L103.429 2.90976L104.21 1.86041C104.254 1.79955 104.306 1.76807 104.369 1.76807C104.413 1.76807 104.455 1.78905 104.495 1.82683C104.533 1.86671 104.554 1.90868 104.554 1.95275C104.554 1.99263 104.539 2.0325 104.512 2.07028L103.656 3.22036L104.512 4.37045Z" fill="#3B3B3B"/>
</g>
</g>
</g>
<g id="Clip path group_3">
<mask id="mask2_145_2708" style="mask-type:luminance" maskUnits="userSpaceOnUse" x="38" y="9" width="5" height="16">
<g id="75f0e544ef">
<path id="Vector_19" d="M38.1953 9.03857H42.9216V24.974H38.1953V9.03857Z" fill="white"/>
</g>
</mask>
<g mask="url(#mask2_145_2708)">
<g id="Group_48">
<path id="Vector_20" d="M38.1953 9.03857H42.9216V24.974H38.1953V9.03857Z" fill="#585858"/>
</g>
</g>
</g>
<g id="Group_49">
<g id="Group_50">
<g id="Group_51">
<path id="Vector_21" d="M47.7666 26.02C46.4067 26.7021 44.9565 27.0442 43.4181 27.0442C42.0519 27.0442 40.8116 26.8343 39.6993 26.4146C37.2858 25.5185 35.2332 23.7786 33.5375 21.193C33.101 20.5676 32.2867 19.363 31.0946 17.5833C29.9067 15.7994 29.1386 14.6598 28.786 14.1666C28.1753 13.2096 27.6884 12.687 27.3254 12.5968V12.3366C27.3421 12.3366 27.361 12.3366 27.3841 12.3366C27.4114 12.3366 27.4429 12.3366 27.4765 12.3366C27.51 12.3366 27.5436 12.3366 27.5772 12.3366C27.615 12.3366 27.6611 12.3366 27.7115 12.3366C27.7661 12.3366 27.8122 12.3366 27.8458 12.3366C28.7357 12.3366 29.5584 12.1351 30.3139 11.7321C31.4493 11.1004 32.018 9.93984 32.018 8.24829C32.018 7.00587 31.6676 6.04886 30.9687 5.37728C30.2677 4.7015 29.4282 4.36151 28.4503 4.36151H26.4523V19.6484C26.4523 20.1017 26.616 20.4921 26.9476 20.8153C27.2834 21.1406 27.6779 21.3022 28.1313 21.3022H28.4754V21.5624H20.5088V21.3022H20.8446C21.2811 21.3022 21.6631 21.1469 21.9947 20.8321C22.3305 20.5131 22.5067 20.1269 22.5235 19.6736V5.12544C22.5067 4.67212 22.3347 4.28386 22.0115 3.95856C21.6862 3.63536 21.2979 3.47166 20.8446 3.47166H20.5088V3.21143H29.4996C31.7536 3.21143 33.4997 3.72771 34.7379 4.75607C35.7159 5.56196 36.207 6.69946 36.207 8.16435C36.207 9.63133 35.7306 10.8234 34.7799 11.7405C33.8271 12.6598 32.74 13.1173 31.5143 13.1173C31.4073 13.1173 31.2961 13.1089 31.1786 13.0921C31.8942 13.4782 32.4902 13.9106 32.9666 14.3849C33.4472 14.855 33.867 15.2999 34.2259 15.7196C34.5826 16.1394 34.889 16.513 35.1409 16.8362C35.3969 17.1552 35.7369 17.5833 36.1567 18.1206C36.5764 18.6536 37.0129 19.2077 37.4662 19.7827C37.9196 20.3599 38.4191 20.9496 38.9689 21.554C39.523 22.1521 40.1358 22.723 40.8074 23.2666C41.4832 23.808 42.1694 24.2529 42.8641 24.6013C44.3521 25.3569 45.987 25.743 47.7666 25.7598V26.02Z" fill="#3B3B3B"/>
</g>
</g>
</g>
</g>
</svg>
