<?xml version="1.0" encoding="UTF-8"?>
<svg version="1.1" xmlns="http://www.w3.org/2000/svg" width="1248" height="832">
<path d="M0 0 C411.84 0 823.68 0 1248 0 C1248 274.56 1248 549.12 1248 832 C836.16 832 424.32 832 0 832 C0 557.44 0 282.88 0 0 Z " fill="#FFFFFF" transform="translate(0,0)"/>
<path d="M0 0 C-3.45793211 4.95791802 -6.97707438 9.0831671 -11.61328125 12.96875 C-14.56822851 15.48359873 -17.40691924 18.11014578 -20.25 20.75 C-21.37759411 21.79297963 -22.50519834 22.8359483 -23.6328125 23.87890625 C-25.28394115 25.40816814 -26.93398676 26.93853307 -28.58105469 28.47216797 C-35.51050905 34.92365298 -42.61658092 41.0678412 -50 47 C-51.87604911 48.54038984 -53.75105172 50.0820551 -55.625 51.625 C-58.88484911 54.29382831 -62.16558391 56.92502388 -65.5 59.5 C-75.01081601 66.85615327 -84.13553599 74.65782607 -93.24902344 82.49462891 C-101.02651378 89.1811885 -108.86713775 95.72127067 -116.97167969 102.00927734 C-121.37513166 105.44939711 -125.52741097 109.10283068 -129.640625 112.88671875 C-132.81299823 115.72819874 -136.15012081 118.33337601 -139.5 120.9609375 C-142.10419876 123.08498711 -144.54488559 125.33100247 -147 127.625 C-150.98070131 131.26771724 -155.04300136 134.00769573 -159.734375 136.6484375 C-161.85424454 137.91304933 -163.64064331 139.2593454 -165.5 140.875 C-168 143 -168 143 -170 143 C-170 143.66 -170 144.32 -170 145 C-171.56616211 146.32177734 -171.56616211 146.32177734 -173.77734375 147.8359375 C-174.59211182 148.39933838 -175.40687988 148.96273926 -176.24633789 149.54321289 C-177.13442139 150.14770264 -178.02250488 150.75219238 -178.9375 151.375 C-180.78933863 152.65194339 -182.64089685 153.92929353 -184.4921875 155.20703125 C-185.88969238 156.16730225 -185.88969238 156.16730225 -187.31542969 157.14697266 C-191.08876059 159.75151809 -194.8258546 162.40573751 -198.5625 165.0625 C-203.79533289 168.7761033 -209.0730447 172.41373851 -214.38964844 176.00634766 C-221.31659603 180.69190376 -227.9652417 185.43712816 -234.35546875 190.8359375 C-239.67674108 195.19042032 -245.37216933 199.05565956 -251 203 C-253.75125594 204.93571952 -256.50072258 206.87397178 -259.25 208.8125 C-259.95979004 209.31241455 -260.66958008 209.8123291 -261.40087891 210.32739258 C-266.62771919 214.01454802 -271.81998808 217.74741389 -277 221.5 C-289.65355946 230.65991999 -302.41890358 239.63852654 -315.33569336 248.42358398 C-319.45080118 251.22916628 -323.51035945 254.07953346 -327.5 257.0625 C-332.29447383 260.60981319 -337.3119792 263.73170381 -342.375 266.875 C-349.31129471 271.18522739 -355.81944129 275.75809936 -362.21875 280.82421875 C-366.81400937 284.41910564 -371.6710792 287.53919489 -376.609375 290.63671875 C-382.15564886 294.12272421 -387.48896836 297.77457923 -392.76171875 301.66015625 C-399.19094048 306.30563733 -405.77861205 310.72537505 -412.33642578 315.18652344 C-415.08982796 317.06115876 -417.84016015 318.94022764 -420.58984375 320.8203125 C-429.3900582 326.83456372 -438.20361967 332.82428561 -447.08520508 338.71777344 C-451.201125 341.45366654 -455.26314677 344.25576639 -459.30078125 347.10546875 C-462.72653762 349.50994319 -466.17478395 351.88080772 -469.625 354.25 C-470.31029785 354.72058838 -470.9955957 355.19117676 -471.70166016 355.67602539 C-473.10654406 356.64055548 -474.51149248 357.60499161 -475.91650391 358.56933594 C-478.56562679 360.38839618 -481.21293961 362.21007874 -483.86010742 364.03198242 C-485.84339443 365.39625175 -487.82789931 366.75873632 -489.8125 368.12109375 C-492.73399936 370.12719922 -495.64946307 372.14178517 -498.5625 374.16015625 C-508.83003613 381.25521071 -519.25505634 388.03406633 -529.83984375 394.64501953 C-533.01283825 396.63531332 -536.16468536 398.65768843 -539.3125 400.6875 C-539.87106689 401.0474707 -540.42963379 401.40744141 -541.00512695 401.77832031 C-542.67027488 402.85191854 -544.33513793 403.92595855 -546 405 C-548.33275537 406.50089968 -550.66641385 408.00039247 -553 409.5 C-554.07596436 410.21704102 -555.15192871 410.93408203 -556.26049805 411.67285156 C-558.67696676 413.23892822 -561.06321307 414.52720554 -563.69775391 415.68530273 C-568.30633946 417.86055111 -572.93071454 420.08052155 -574.77331543 425.11138916 C-575.93240608 431.22193964 -575.61491231 437.37935464 -575.375 443.5625 C-575.35296611 445.44850372 -575.33728167 447.33459292 -575.328125 449.22070312 C-575.2920694 453.81804977 -575.16972278 458.40572501 -575 463 C-572.87465341 462.85930804 -570.74972471 462.71229079 -568.625 462.5625 C-567.44164062 462.48128906 -566.25828125 462.40007812 -565.0390625 462.31640625 C-562.08481099 462.18915064 -562.08481099 462.18915064 -560 461 C-557.41078497 460.73875633 -554.84554964 460.53315177 -552.25 460.375 C-551.19425781 460.29765625 -551.19425781 460.29765625 -550.1171875 460.21875 C-545.89448332 459.95188765 -542.1789518 460.18725756 -538 461 C-536.906875 461 -535.81375 461 -534.6875 461 C-533.800625 461 -532.91375 461 -532 461 C-531.67 461.33 -531.34 461.66 -531 462 C-529.31816052 462.23287008 -527.6287584 462.41264166 -525.9375 462.5625 C-525.01839844 462.64628906 -524.09929688 462.73007812 -523.15234375 462.81640625 C-522.44207031 462.87699219 -521.73179687 462.93757813 -521 463 C-521 463.66 -521 464.32 -521 465 C-520.030625 464.9175 -519.06125 464.835 -518.0625 464.75 C-513.98130298 464.73351032 -511.00673544 466.11601013 -507.40625 467.9296875 C-504.91636948 469.14054048 -504.91636948 469.14054048 -501.6953125 469.67578125 C-496.678358 471.47361167 -493.96916462 474.48091597 -490.375 478.3125 C-489.73304688 478.97701172 -489.09109375 479.64152344 -488.4296875 480.32617188 C-487.17502611 481.62582624 -485.92535968 482.93032434 -484.68115234 484.23999023 C-483.28776562 485.69873622 -481.86611685 487.13042618 -480.4375 488.5546875 C-477.42686347 491.5749735 -474.52310131 494.68461945 -471.625 497.8125 C-471.0484668 498.4327002 -470.47193359 499.05290039 -469.87792969 499.69189453 C-466.93562076 502.86762775 -464.0484199 506.07076241 -461.25 509.375 C-458.07258863 513.08864956 -454.46359245 516.20079565 -450.72265625 519.3359375 C-450.15417969 519.88507812 -449.58570313 520.43421875 -449 521 C-449 521.66 -449 522.32 -449 523 C-448.42121094 523.26167969 -447.84242188 523.52335938 -447.24609375 523.79296875 C-441.40205351 526.93350516 -436.59367952 532.29147849 -432 537 C-427.51578334 541.58148817 -422.95650841 545.95610269 -418.08984375 550.12890625 C-414.87811671 553.00445252 -411.88795166 556.0907814 -408.8828125 559.1796875 C-407.12246661 561.06383898 -407.12246661 561.06383898 -405 562 C-405 562.66 -405 563.32 -405 564 C-404.34 564 -403.68 564 -403 564 C-401.80078125 565.22265625 -401.80078125 565.22265625 -400.3125 567.0625 C-392.07166081 576.75760493 -382.77591906 585.85952605 -373 594 C-372.00484375 594.84949219 -371.0096875 595.69898438 -369.984375 596.57421875 C-323.18160898 636.80339974 -323.18160898 636.80339974 -264.875 649.625 C-261.65655074 649.34958258 -259.06903998 649.02301333 -256 648 C-254.1673612 647.9196733 -252.33375386 647.86112226 -250.5 647.8125 C-226.99948836 646.24742951 -205.93595828 638.45329283 -185.45703125 627.3828125 C-181.85245869 625.43714957 -178.20094995 623.63187118 -174.5 621.875 C-165.68840715 617.52481672 -158.03565439 611.26093833 -150.5625 604.9375 C-148 603 -148 603 -145.37890625 601.80859375 C-140.91548189 599.41950071 -137.2500714 596.36095372 -133.375 593.125 C-132.62476563 592.51269531 -131.87453125 591.90039062 -131.1015625 591.26953125 C-127.26384461 588.09184641 -124.01680115 584.99427285 -121 581 C-119.96710205 580.0902456 -118.90548666 579.21160708 -117.8125 578.375 C-112.81655226 574.22600477 -109.03172895 569.05448372 -105 564 C-103.98651043 562.80622622 -102.96671591 561.61774216 -101.9375 560.4375 C-100.95706769 559.29274943 -99.97801846 558.14681353 -99 557 C-97.99066406 555.82824219 -97.99066406 555.82824219 -96.9609375 554.6328125 C-93.18522829 550.11569129 -90.5645132 546.41831747 -88.83984375 540.8046875 C-87.4902851 537.90470565 -85.14334821 536.37009249 -82.65234375 534.453125 C-80.26837468 532.35658483 -79.17611463 529.90569498 -78 527 C-77.34 527 -76.68 527 -76 527 C-75.76667969 526.13890625 -75.53335937 525.2778125 -75.29296875 524.390625 C-73.85490052 520.61949743 -71.8306238 517.83891104 -69.3125 514.75 C-68.40995162 513.60795997 -67.50892153 512.46471848 -66.609375 511.3203125 C-66.16658203 510.75989258 -65.72378906 510.19947266 -65.26757812 509.62207031 C-60.65436771 503.71872478 -56.66529921 498.01394529 -54 491 C-52.56075223 487.67173953 -52.17730109 487.11820073 -49 485 C-46.29003633 480.35159257 -44.73410831 475.36139695 -43.59301758 470.13647461 C-42.96855331 467.88670645 -42.0916431 465.96861581 -41.0703125 463.87109375 C-38.87770978 459.02934366 -37.80234934 454.27581607 -36.875 449.0625 C-36.55989583 447.38671875 -36.24479167 445.7109375 -35.9296875 444.03515625 C-35.70490723 442.80756592 -35.70490723 442.80756592 -35.47558594 441.55517578 C-34.69498654 437.36125727 -33.84720007 433.18089339 -33 429 C-31.02 428.505 -31.02 428.505 -29 428 C-27.40255628 431.19488744 -27.46183972 434.73349398 -27.125 438.25 C-26.55559507 443.80183485 -25.84556233 449.18374091 -24.5625 454.625 C-22.66756725 462.89033481 -21.74592884 471.2489364 -20.76171875 479.6640625 C-20.28326163 483.75315097 -19.74744316 487.82588675 -19.14453125 491.8984375 C-9.66831709 557.22033847 -18.26561889 631.11121474 -57.75830078 685.29101562 C-58.90808074 686.87348902 -60.0314297 688.47507551 -61.15234375 690.078125 C-64.97463559 695.49745363 -69.08029831 700.45806438 -73.578125 705.328125 C-76.32587972 708.35951892 -78.94287565 711.48325431 -81.5625 714.625 C-93.68611983 729.07123254 -108.13427437 740.72899643 -123.640625 751.37109375 C-125.16650687 752.42455855 -126.6782532 753.49893086 -128.171875 754.59765625 C-148.01813236 769.07173705 -171.69234893 782.10517551 -194.9609375 789.88671875 C-197.96466962 790.8545391 -197.96466962 790.8545391 -200.2109375 792.4609375 C-204.619335 794.89358262 -209.36954338 795.80165071 -214.25 796.9375 C-215.90261841 797.3255481 -215.90261841 797.3255481 -217.58862305 797.72143555 C-235.91822793 801.91310451 -254.19052361 804.72263992 -273 805 C-274.15177734 805.02046387 -275.30355469 805.04092773 -276.49023438 805.06201172 C-280.32686339 805.12205208 -284.16301021 805.15936531 -288 805.1875 C-289.20495117 805.20071289 -290.40990234 805.21392578 -291.65136719 805.22753906 C-321.19125058 805.25201287 -349.91851294 789.82263895 -371.25 769.8984375 C-372.55432005 768.57883245 -373.84790579 767.24850412 -375.12890625 765.90625 C-377.06102609 763.93782728 -379.08560556 762.15984891 -381.1875 760.375 C-384.55085234 757.48461909 -387.22341402 754.45197176 -390 751 C-390.763125 750.236875 -391.52625 749.47375 -392.3125 748.6875 C-394.71782441 746.28217559 -397.02716847 743.83119284 -399.3125 741.3125 C-400.35857422 740.16201172 -400.35857422 740.16201172 -401.42578125 738.98828125 C-403 737 -403 737 -403 735 C-403.66 735 -404.32 735 -405 735 C-406.26953125 733.7421875 -406.26953125 733.7421875 -407.8125 731.875 C-411.21630878 727.86006898 -414.76971211 724.01977404 -418.375 720.1875 C-423.01270291 715.23650092 -427.37672106 710.15704223 -431.61328125 704.85546875 C-434.51433186 701.3846537 -437.58566311 698.10331893 -440.6875 694.8125 C-453 681.71929367 -453 681.71929367 -453 678 C-453.66 678 -454.32 678 -455 678 C-456.19140625 676.63671875 -456.19140625 676.63671875 -457.5625 674.6875 C-463.60376564 666.36981543 -470.32858864 658.59102791 -476.98535156 650.76464844 C-479.69273893 647.57292063 -482.34231632 644.34686109 -484.9375 641.0625 C-495.31872746 627.98512553 -506.1855179 614.74000651 -519 604 C-519.5878125 603.46246094 -520.175625 602.92492187 -520.78125 602.37109375 C-531.71899815 592.38344661 -544.45517784 584.7567221 -557 577 C-562.61 573.37 -568.22 569.74 -574 566 C-574.33 649.82 -574.66 733.64 -575 820 C-608.66 820 -642.32 820 -677 820 C-676.99830811 801.8102002 -676.99830811 801.8102002 -676.99658203 783.25292969 C-676.99718944 744.48497527 -677.02719904 705.71709374 -677.07579029 666.94917093 C-677.08330664 660.93079521 -677.09056207 654.9124192 -677.09765625 648.89404297 C-677.099073 647.69585569 -677.10048975 646.49766841 -677.10194944 645.26317242 C-677.1242886 625.84364786 -677.12547414 606.4241764 -677.11888863 587.00464258 C-677.11260407 567.08923612 -677.12894401 547.17394166 -677.16643608 527.258569 C-677.18886681 514.96242862 -677.19349564 502.66654299 -677.17559664 490.37039408 C-677.16502262 481.94681803 -677.17635707 473.52345203 -677.20516153 465.09991923 C-677.22114416 460.23456609 -677.22723566 455.36971222 -677.20739174 450.50436211 C-677.18945351 446.05415877 -677.19888774 441.60490255 -677.23053883 437.1547834 C-677.23710538 435.54100335 -677.23343358 433.9271441 -677.21874608 432.31341752 C-677.20030275 430.12604087 -677.21846429 427.94196492 -677.24609566 425.75475693 C-677.2468551 424.53813299 -677.24761454 423.32150905 -677.24839699 422.06801772 C-677.73129225 418.73032284 -677.73129225 418.73032284 -680.8901366 416.73456597 C-681.91639152 416.1621592 -682.94264644 415.58975243 -684 415 C-685.66796318 413.33463085 -687.33464104 411.66797334 -689 410 C-690.89614097 408.64834973 -692.83911979 407.36115515 -694.8125 406.125 C-695.39580078 405.75769775 -695.97910156 405.39039551 -696.58007812 405.01196289 C-697.92864422 404.16435583 -699.27922022 403.31994161 -700.63134766 402.47802734 C-703.34776753 400.78299478 -706.05467616 399.07324823 -708.76171875 397.36328125 C-710.8408333 396.054191 -712.92026183 394.74559928 -715 393.4375 C-715.97171143 392.82471191 -716.94342285 392.21192383 -717.94458008 391.58056641 C-724.35576301 387.56710073 -730.86377847 383.75406519 -737.44238281 380.0246582 C-742.68623974 377.04929887 -747.87979015 373.98763179 -753.07711792 370.93200684 C-756.22620947 369.08059993 -759.37683378 367.23180433 -762.52734375 365.3828125 C-763.1603389 365.01124023 -763.79333405 364.63966797 -764.44551086 364.25683594 C-769.45060007 361.31979644 -774.46255154 358.39464957 -779.47729492 355.47412109 C-783.36518556 353.20968532 -787.25067317 350.94114766 -791.13574219 348.671875 C-793.06532197 347.54557408 -794.99567699 346.42060038 -796.92675781 345.296875 C-806.58055287 339.67543307 -816.16202325 334.03754533 -825.38769531 327.73291016 C-830.41110998 324.3240665 -835.58827478 321.21511381 -840.8125 318.125 C-861.74038691 305.70440033 -881.61597026 291.55336873 -901.13427734 277.03955078 C-906.035544 273.40720727 -911.00496409 269.91051562 -916.0625 266.5 C-922.7717765 261.96843616 -929.1395248 257.06932639 -935.49365234 252.05517578 C-939.80146952 248.66839807 -944.14872013 245.44535109 -948.6875 242.375 C-954.05964214 238.73081847 -959.10230906 234.79869157 -964.14233398 230.71777344 C-975.56437057 221.47558134 -987.34564256 212.71285553 -999.18994141 204.0222168 C-1005.2963687 199.53602821 -1011.3169806 194.95452158 -1017.30419922 190.31005859 C-1019.87402555 188.32478821 -1022.45740722 186.35739105 -1025.03955078 184.38818359 C-1032.57192129 178.64344546 -1040.06608957 172.8516809 -1047.53857422 167.02929688 C-1054.53040346 161.58222729 -1061.55232245 156.17543532 -1068.58691406 150.78369141 C-1074.64663408 146.13864191 -1080.6884678 141.47326259 -1086.6875 136.75 C-1102.36163606 124.39203313 -1102.36163606 124.39203313 -1118.25 112.3125 C-1132.67974551 101.53988007 -1147.02972914 90.46539128 -1159.5234375 77.44921875 C-1161.53092993 75.46389106 -1163.56262311 73.62502463 -1165.69921875 71.78515625 C-1177.38972117 61.6452956 -1188.73423196 50.42007205 -1198 38 C-1198.66773438 37.12601563 -1199.33546875 36.25203125 -1200.0234375 35.3515625 C-1214 16.66259579 -1214 16.66259579 -1214 12 C-1209.03881031 12.53777781 -1205.26411253 14.22167472 -1200.9375 16.5625 C-1183.76840189 25.42461882 -1165.83493762 30.93128181 -1147 35 C-1146.30304016 35.15082031 -1145.60608032 35.30164062 -1144.88800049 35.45703125 C-1102.34812625 44.61735321 -1059.37252707 49.81579509 -1016 53 C-1014.82407288 53.08734406 -1014.82407288 53.08734406 -1013.62438965 53.17645264 C-995.55959075 54.50170886 -977.50789668 55.03262198 -959.3984375 55.234375 C-957.82497137 55.2527389 -956.25150539 55.27111561 -954.67803955 55.289505 C-947.55131949 55.37055486 -940.42499171 55.44114869 -933.29785728 55.47146034 C-930.31121791 55.48660806 -927.3247487 55.51327968 -924.33821487 55.54225922 C-922.93219691 55.55305548 -921.526127 55.55853628 -920.1200676 55.55841827 C-918.17423549 55.55864505 -916.22843578 55.57856372 -914.28271484 55.59936523 C-912.63715103 55.60697121 -912.63715103 55.60697121 -910.95834351 55.61473083 C-907.57562728 56.05526665 -905.72513326 56.97562326 -903 59 C-901.44809216 61.21989044 -900.11851058 63.33366127 -898.8125 65.6875 C-898.03285079 67.03998655 -897.25154125 68.39151707 -896.46875 69.7421875 C-896.0665625 70.44182617 -895.664375 71.14146484 -895.25 71.86230469 C-893.18390072 75.39565728 -890.99724327 78.85170834 -888.8125 82.3125 C-886.15656396 86.53408799 -883.52748894 90.76220895 -881 95.0625 C-875.63856168 104.06423309 -869.78174474 112.82084059 -863.36328125 121.1015625 C-861.72658767 123.38074037 -860.34357933 125.75978835 -858.9375 128.1875 C-857.27397734 131.03617482 -855.94099033 133.0574966 -853.5625 135.375 C-850.19037992 138.82936691 -848.18740775 142.75328171 -845.82421875 146.94140625 C-843.75995619 150.40247174 -841.44135667 153.4783659 -838.87109375 156.57421875 C-837.20669563 158.73202925 -835.7088115 160.9170126 -834.2109375 163.19140625 C-831.03295342 168.00454387 -827.63719783 172.62940017 -824.1875 177.25 C-820.0864621 182.77044162 -816.05238211 188.31154675 -812.1875 194 C-808.74801332 199.0347959 -805.02080584 203.71764948 -801.11328125 208.39453125 C-798.51495243 211.59801614 -796.19829945 214.94767039 -793.8671875 218.34765625 C-790.50187523 223.12808937 -786.88053448 227.71589925 -783.29394531 232.33105469 C-781.61907531 234.49132097 -779.95674774 236.66106466 -778.29418945 238.83081055 C-773.94334189 244.50631655 -769.54398227 250.14178599 -765.11450195 255.75610352 C-762.38923016 259.21512087 -759.6962141 262.69615315 -757.02783203 266.19921875 C-752.87336292 271.64749463 -748.62833079 276.94415271 -744 282 C-743.15179687 282.928125 -742.30359375 283.85625 -741.4296875 284.8125 C-738.86446978 287.60868812 -736.28488357 290.39127782 -733.70068359 293.16992188 C-732.55367165 294.40420288 -731.40819648 295.63991356 -730.26416016 296.87695312 C-722.13854284 305.66164581 -713.8617315 314.24776808 -705.2824707 322.59277344 C-704.59241943 323.27114258 -703.90236816 323.94951172 -703.19140625 324.6484375 C-702.26630249 325.54828369 -702.26630249 325.54828369 -701.32250977 326.46630859 C-700 328 -700 328 -700 330 C-698.68 330.66 -697.36 331.32 -696 332 C-696 332.66 -696 333.32 -696 334 C-695.13375 334.3403125 -695.13375 334.3403125 -694.25 334.6875 C-691.40469122 336.34726345 -690.06346666 338.42066667 -688 341 C-685.9769046 342.86995272 -683.90267265 344.66395215 -681.8046875 346.44921875 C-680 348 -680 348 -678 350 C-677.505 207.935 -677.505 207.935 -677 63 C-643.34 63 -609.68 63 -575 63 C-574.67 158.37 -574.34 253.74 -574 352 C-568.09261925 347.92305973 -568.09261925 347.92305973 -563.5 343.125 C-559.13594365 337.94450549 -554.48393884 333.23610562 -549.3359375 328.83203125 C-544.72917115 324.81681377 -540.38070458 320.57188553 -536.0625 316.25 C-535.26835693 315.45650146 -534.47421387 314.66300293 -533.65600586 313.84545898 C-528.79424362 308.93971247 -524.32390152 303.9592265 -520.07421875 298.515625 C-516.83514488 294.58725669 -513.18131234 291.1031991 -509.55078125 287.54296875 C-506.86912271 284.86952356 -504.38929161 282.09687764 -501.9375 279.21484375 C-500.38496928 277.44007577 -498.80624573 275.71715 -497.1875 274.00390625 C-491.59947618 268.0815033 -486.53563554 262.16779985 -481.85546875 255.48046875 C-479.52333899 252.36277949 -476.86747014 249.77346446 -474.06640625 247.08203125 C-467.63949532 240.60652364 -462.32278333 233.13354599 -457.01953125 225.73828125 C-454.28629293 222.032285 -451.36258632 218.50250058 -448.42578125 214.95703125 C-444.26918396 209.89013246 -440.2464491 204.71812694 -436.21337891 199.55273438 C-435.20087381 198.2570538 -434.18485364 196.96412105 -433.16796875 195.671875 C-425.87180645 186.36971188 -418.72391171 176.93112679 -411.94970703 167.24169922 C-408.50315938 162.31520267 -405.05895587 157.74742842 -400.64453125 153.6328125 C-398.05669289 151.06341479 -395.9463747 148.15103858 -393.74609375 145.25 C-392.08746591 143.11270775 -390.35968136 141.08381962 -388.5625 139.0625 C-384.53089828 134.51242179 -380.76576654 129.77084115 -377 125 C-376.05098069 123.80843488 -375.10174993 122.61703815 -374.15234375 121.42578125 C-373.16380834 120.17988912 -372.1755255 118.93379654 -371.1875 117.6875 C-370.71924805 117.10081543 -370.25099609 116.51413086 -369.76855469 115.90966797 C-366.66637202 111.98090951 -363.72528947 108.17586841 -362.125 103.375 C-361 101 -361 101 -358.734375 99.76953125 C-355.27959985 97.53379819 -353.36651516 94.67388676 -351.125 91.3125 C-348.34156206 87.26254605 -345.59282325 83.36767761 -342.25 79.75 C-339.71848565 76.98781028 -337.85503916 74.19358189 -336 70.9375 C-333.67161033 66.88139566 -331.13817887 63.90107391 -327.73046875 60.7265625 C-325.30860935 58.31017005 -323.40365895 55.60181405 -321.45703125 52.796875 C-319.73306623 50.67080554 -318.36745565 49.4103678 -316 48 C-312.78881836 47.67529297 -312.78881836 47.67529297 -308.83984375 47.7421875 C-308.09541519 47.74921188 -307.35098663 47.75623627 -306.58399963 47.76347351 C-304.92490559 47.77987197 -303.26586684 47.80275762 -301.60693359 47.83108521 C-296.84111477 47.90948759 -292.07493958 47.93084254 -287.30859375 47.95703125 C-286.23084686 47.96385422 -285.15309998 47.97067719 -284.04269409 47.97770691 C-268.35254573 48.05459153 -252.66421971 47.80992916 -236.97591019 47.5956192 C-234.53171687 47.56292426 -232.08750744 47.53216643 -229.64328003 47.50213623 C-192.71061633 47.20395673 -192.71061633 47.20395673 -155.875 44.8125 C-153.95518311 44.6278418 -153.95518311 44.6278418 -151.99658203 44.43945312 C-140.25040104 43.26393769 -128.56045652 41.66439851 -116.875 40 C-115.97424744 39.87452789 -115.07349487 39.74905579 -114.14544678 39.61978149 C-111.57166374 39.25824015 -109.00055065 38.88169195 -106.4296875 38.5 C-105.66543457 38.39374802 -104.90118164 38.28749603 -104.11376953 38.17802429 C-99.56140898 37.47894004 -96.08807988 36.23293742 -92 34 C-89.99436828 33.51541784 -87.97047612 33.10268483 -85.9375 32.75 C-61.55595803 27.7310201 -37.89981464 17.08182087 -17.0234375 3.6574707 C-11.21180789 0.08693877 -6.78433974 -0.6755744 0 0 Z " fill="#000000" transform="translate(1246,0)"/>
<path d="M0 0 C0.99 0.33 1.98 0.66 3 1 C3.921875 3.67578125 3.921875 3.67578125 4.75 7.3125 C8.91733975 24.28085169 15.49722671 40.25875745 23 56 C23.33644531 56.70608398 23.67289063 57.41216797 24.01953125 58.13964844 C30.63871274 71.91202904 37.53309021 85.94003707 46.82421875 98.1171875 C49.0221417 101.02933677 51.09909831 104.00340501 53.17333984 107.00390625 C61.31592783 118.74645816 69.87848963 130.39372602 80.24609375 140.28515625 C82.09022596 142.08821647 83.76090594 143.978291 85.4375 145.9375 C93.42925885 155.14773329 102.25732799 162.73506385 112 170 C112.98299072 170.73355713 112.98299072 170.73355713 113.98583984 171.48193359 C153.58424239 200.77272593 198.50465847 216.35383635 247.875 209.375 C267.5128468 206.33228155 284.94928157 200.20568946 300.6015625 187.7578125 C303 186 303 186 305 186 C305 185.34 305 184.68 305 184 C306.40625 182.80078125 306.40625 182.80078125 308.5 181.3125 C315.43799542 176.07094233 321.59098332 169.9809002 327.88623047 164.00048828 C331.91127358 160.1911555 335.97771679 156.42602604 340.03955078 152.65600586 C345.10568414 147.93904209 349.9602537 143.07078625 354.65771484 137.98681641 C362.82732354 129.15377721 371.2887422 120.63903655 379.84936523 112.18774414 C380.76274658 111.2827417 381.67612793 110.37773926 382.6171875 109.4453125 C383.43815918 108.63594238 384.25913086 107.82657227 385.10498047 106.99267578 C387.05185844 105.13987086 387.05185844 105.13987086 388 103 C388.66 103 389.32 103 390 103 C390.22558594 102.45472656 390.45117188 101.90945313 390.68359375 101.34765625 C392.39139986 98.30198422 394.67039109 95.94660538 397.0625 93.4375 C400.7839215 89.46679961 404.34124065 85.43524832 407.75 81.1875 C410.85951702 77.31738169 414.08311241 73.75233107 417.6875 70.33984375 C419.12099433 69.01337071 419.12099433 69.01337071 420 67 C420.66 67 421.32 67 422 67 C422 66.34 422 65.68 422 65 C422.66 65 423.32 65 424 65 C424.22042969 64.46117187 424.44085938 63.92234375 424.66796875 63.3671875 C426.4455415 60.20821657 428.83490028 57.73750223 431.3125 55.125 C432.26831066 54.10806948 433.22274305 53.08984174 434.17578125 52.0703125 C434.6445166 51.57047852 435.11325195 51.07064453 435.59619141 50.55566406 C437.03983615 48.95585462 438.38448085 47.29954889 439.73046875 45.6171875 C440.47941406 44.75351562 441.22835938 43.88984375 442 43 C442.66 43 443.32 43 444 43 C444 42.34 444 41.68 444 41 C444.66 41 445.32 41 446 41 C446 40.34 446 39.68 446 39 C446.66 39 447.32 39 448 39 C448 38.34 448 37.68 448 37 C448.66 37 449.32 37 450 37 C450.26167969 36.41734375 450.52335937 35.8346875 450.79296875 35.234375 C455.136825 27.19332072 464.68805854 20.46951718 473 17 C477.99914952 17.77440813 480.54716602 21.5710756 483.5625 25.3125 C484.62030905 26.58507084 485.68026225 27.85586199 486.7421875 29.125 C487.54994629 30.09373047 487.54994629 30.09373047 488.37402344 31.08203125 C490.90171232 34.06364144 493.53090516 36.94576936 496.1875 39.8125 C496.68604492 40.35068359 497.18458984 40.88886719 497.69824219 41.44335938 C501.29301945 45.2964298 504.98297818 49.04140602 508.76953125 52.70703125 C510.5862734 54.57468036 512.26242973 56.46790278 513.94921875 58.44921875 C519.30234335 64.61500532 525.19590394 70.26399669 531 76 C544.62000875 89.46022094 544.62000875 89.46022094 549.6328125 95.44458008 C550.99692163 96.99649781 552.45412109 98.31997165 554 99.6875 C556 102 556 102 555.8671875 104.37890625 C553.3122413 112.10128869 543.95003347 117.77469464 537.8203125 122.68359375 C534.95614967 125.03601558 532.22514219 127.4883661 529.5 130 C525.08389789 134.05956129 520.5359852 137.89025346 515.875 141.6640625 C507.52549349 148.44803654 499.43522684 155.44993047 491.58764648 162.80883789 C488.72669674 165.47257024 485.85152318 167.94452581 482.6875 170.25 C472.77595679 177.71583774 463.2597657 187.42450691 456.1640625 197.59375 C455.77992188 198.0578125 455.39578125 198.521875 455 199 C454.34 199 453.68 199 453 199 C452.76410156 199.55429687 452.52820313 200.10859375 452.28515625 200.6796875 C450.6873545 203.56447242 448.68148991 205.71172032 446.4375 208.125 C443.36280814 211.31507509 443.36280814 211.31507509 441 215 C440.34 215 439.68 215 439 215 C438.731875 215.57234375 438.46375 216.1446875 438.1875 216.734375 C436.95867364 219.07884634 435.57477824 221.12404938 434 223.25 C433.484375 223.95640625 432.96875 224.6628125 432.4375 225.390625 C431.7259375 226.18726563 431.7259375 226.18726563 431 227 C430.34 227 429.68 227 429 227 C428.76410156 227.55429687 428.52820313 228.10859375 428.28515625 228.6796875 C426.6873545 231.56447242 424.68148991 233.71172032 422.4375 236.125 C419.36280814 239.31507509 419.36280814 239.31507509 417 243 C416.34 243 415.68 243 415 243 C415 243.66 415 244.32 415 245 C414.34 245 413.68 245 413 245 C413 245.66 413 246.32 413 247 C412.34 247 411.68 247 411 247 C410.67 248.65 410.34 250.3 410 252 C409.38125 252.061875 408.7625 252.12375 408.125 252.1875 C407.42375 252.455625 406.7225 252.72375 406 253 C405.74734375 253.69867187 405.4946875 254.39734375 405.234375 255.1171875 C403.54868099 259.05402985 400.96859172 261.7744776 398.125 264.9375 C396.94492182 266.27439483 395.76524342 267.61164264 394.5859375 268.94921875 C393.98749023 269.62388184 393.38904297 270.29854492 392.77246094 270.99365234 C390.06890057 274.05396351 387.40641699 277.14876355 384.75 280.25 C384.25411377 280.8277417 383.75822754 281.4054834 383.24731445 282.00073242 C380.21670779 285.54273193 377.24766775 289.12809457 374.3125 292.75 C371.41085954 296.32974121 368.41990541 299.78489108 365.3125 303.1875 C362.75218653 305.99459067 360.34367212 308.79174505 358.125 311.875 C354.73885131 316.53449151 350.80246973 320.67158992 346.87890625 324.875 C344.75158752 327.15947134 342.69418403 329.49435574 340.65234375 331.85546875 C322.10872438 353.11814572 304.51613313 367.8923952 276 372 C274.88963379 372.16459717 274.88963379 372.16459717 273.75683594 372.33251953 C261.35946577 374.10168912 249.45949285 374.05670724 237 373 C236.27022949 372.94328125 235.54045898 372.8865625 234.78857422 372.828125 C178.22590895 368.27725456 122.84656639 346.81920262 82 307 C81.38205566 306.40251953 80.76411133 305.80503906 80.12744141 305.18945312 C72.21876153 297.52019038 64.70166812 289.76733114 58 281 C57.55092285 280.4220166 57.1018457 279.8440332 56.63916016 279.24853516 C48.83418524 269.19347738 41.75080158 258.78676468 35 248 C34.42636719 247.09894531 33.85273437 246.19789063 33.26171875 245.26953125 C10.67911651 208.9304112 -0.38420569 167.11937656 -6.125 125.125 C-6.28379639 123.96838867 -6.44259277 122.81177734 -6.60620117 121.62011719 C-9.02451363 103.12339802 -10.37362337 84.67714615 -10.37060547 66.02050781 C-10.37499988 63.00008526 -10.41160098 59.98110665 -10.44921875 56.9609375 C-10.69810039 12.89106279 -10.69810039 12.89106279 0 0 Z " fill="#000000" transform="translate(10,444)"/>
</svg>
