<svg width="65" height="91" viewBox="0 0 65 91" fill="none" xmlns="http://www.w3.org/2000/svg">
<g id="Group 21">
<path id="Vector" d="M59.1707 36.9761L4.72439 48.8014L4.09668 54.2949L62.1976 63.1987L59.1707 36.9761Z" fill="#FFDE59"/>
<g id="Clip path group">
<mask id="mask0_139_2252" style="mask-type:luminance" maskUnits="userSpaceOnUse" x="1" y="55" width="63" height="27">
<g id="03e1a1cee0">
<path id="Vector_2" d="M1.20117 55.5078H63.7529V81.6946H1.20117V55.5078Z" fill="white"/>
</g>
</mask>
<g mask="url(#mask0_139_2252)">
<g id="Group">
<path id="Vector_3" d="M63.1308 71.2914L3.91348 55.8999L1.55852 76.3847C1.23835 79.2009 3.42479 81.6633 6.25369 81.6633H59.017C61.8459 81.6633 64.0471 79.2009 63.7121 76.3847L63.1308 71.2914Z" fill="#DEED30"/>
</g>
</g>
</g>
<path id="Vector_4" d="M59.0172 35.6443L57.6417 23.7579C57.4121 21.7842 55.7459 20.3013 53.7743 20.3013H11.482C9.49564 20.3013 7.82737 21.7842 7.61462 23.7579L5.38184 43.141L59.0172 35.6443Z" fill="#EEBF2B"/>
<g id="Clip path group_2">
<mask id="mask1_139_2252" style="mask-type:luminance" maskUnits="userSpaceOnUse" x="15" y="0" width="35" height="33">
<g id="ede9d03538">
<path id="Vector_5" d="M15.7607 0H49.7328V32.8599H15.7607V0Z" fill="white"/>
</g>
</mask>
<g mask="url(#mask1_139_2252)">
<g id="Group_2">
<path id="Vector_6" d="M47.719 25.7317V15.1133C47.719 6.79095 40.9469 0.0146484 32.6288 0.0146484C24.3106 0.0146484 17.5385 6.79095 17.5385 15.1133V25.7317C16.5906 26.4353 15.9629 27.5517 15.9629 28.8366C15.9629 30.9788 17.6901 32.7081 19.8302 32.7081C21.9725 32.7081 23.6997 30.9788 23.6997 28.8366C23.6997 27.5664 23.072 26.4353 22.1241 25.7317V15.1133C22.1241 9.31652 26.834 4.6045 32.6288 4.6045C38.4235 4.6045 43.1334 9.31652 43.1334 15.1133V25.7317C42.1855 26.4353 41.5578 27.5517 41.5578 28.8366C41.5578 30.9788 43.285 32.7081 45.4251 32.7081C47.5674 32.7081 49.2946 30.9788 49.2946 28.8366C49.2946 27.5517 48.6669 26.4353 47.719 25.7317Z" fill="#EEBF2B"/>
</g>
</g>
</g>
<g id="Group_3">
<g id="Group_4">
<g id="Group_5">
<path id="Vector_7" d="M47.6832 74.6917L45.4757 46.963H45.1892L35.6093 74.4052H29.2563L19.668 46.963H19.39L17.174 74.6917H6.51562L10.7116 27.9043H22.0525L32.4328 54.9L42.8132 27.9043H54.154L58.35 74.6917H47.6832Z" fill="#577950"/>
</g>
</g>
</g>
<g id="Group_6">
<g id="Group_7">
<g id="Group_8">
<path id="Vector_8" d="M2.0173 90.8642C1.87617 90.8642 1.7519 90.8263 1.64658 90.7547C1.54547 90.683 1.46121 90.5693 1.39381 90.4176L0.062562 87.317C0.0120083 87.1948 -0.00905542 87.079 0.00358272 86.9716C0.0204339 86.8662 0.0709876 86.782 0.155244 86.7188C0.243713 86.6514 0.365884 86.6177 0.517545 86.6177C0.646035 86.6177 0.74925 86.6493 0.829293 86.7104C0.907229 86.7672 0.976741 86.8768 1.03993 87.039L2.16896 89.87H1.9162L3.08736 87.0305C3.14844 86.8747 3.21795 86.7672 3.298 86.7104C3.38225 86.6493 3.49389 86.6177 3.63502 86.6177C3.75719 86.6177 3.85409 86.6514 3.92149 86.7188C3.99311 86.782 4.03945 86.8662 4.0563 86.9716C4.07315 87.0727 4.0563 87.1864 4.00575 87.3086L2.6408 90.4176C2.57761 90.5693 2.49335 90.683 2.38803 90.7547C2.28692 90.8263 2.16265 90.8642 2.0173 90.8642Z" fill="#445441"/>
</g>
</g>
</g>
<g id="Group_9">
<g id="Group_10">
<g id="Group_11">
<path id="Vector_9" d="M8.67409 90.8813C8.37498 90.8813 8.11168 90.8244 7.88208 90.7128C7.65037 90.5948 7.46922 90.4389 7.33441 90.2409C7.20382 90.045 7.14062 89.8239 7.14062 89.5753C7.14062 89.2783 7.21856 89.0424 7.37654 88.8676C7.53242 88.6885 7.78518 88.56 8.13485 88.48C8.48872 88.402 8.96266 88.362 9.55878 88.362H9.98006V88.9687H9.5672C9.21754 88.9687 8.93949 88.9855 8.73307 89.0192C8.52453 89.0529 8.37919 89.1119 8.29493 89.1962C8.21068 89.2762 8.16855 89.3857 8.16855 89.5248C8.16855 89.7101 8.22964 89.8618 8.35391 89.9797C8.4824 90.0977 8.66145 90.1567 8.89315 90.1567C9.07852 90.1567 9.24071 90.1146 9.38184 90.0303C9.52718 89.9418 9.64303 89.8197 9.72729 89.668C9.81154 89.5163 9.85367 89.3457 9.85367 89.154V88.1851C9.85367 87.9049 9.79048 87.7027 9.66831 87.5784C9.54403 87.4563 9.3355 87.3931 9.04481 87.3931C8.88051 87.3931 8.70358 87.4141 8.514 87.4521C8.32864 87.4921 8.13485 87.5595 7.93263 87.6543C7.82521 87.7048 7.73042 87.7196 7.64616 87.6964C7.56612 87.6753 7.50503 87.629 7.4608 87.5616C7.41446 87.49 7.39339 87.4099 7.39339 87.3257C7.39339 87.2414 7.41446 87.1614 7.4608 87.0813C7.50503 86.9971 7.58086 86.936 7.68829 86.896C7.94527 86.7907 8.19383 86.7148 8.42974 86.6685C8.66566 86.6242 8.88051 86.6011 9.07852 86.6011C9.48294 86.6011 9.81365 86.6643 10.0727 86.7864C10.336 86.9107 10.5319 87.0982 10.6625 87.351C10.791 87.5995 10.8563 87.9197 10.8563 88.3115V90.3252C10.8563 90.5 10.8142 90.6348 10.7299 90.7296C10.6457 90.8181 10.5235 90.8644 10.3676 90.8644C10.2097 90.8644 10.0854 90.8181 9.99691 90.7296C9.91265 90.6348 9.87052 90.5 9.87052 90.3252V89.9208H9.93793C9.89791 90.1188 9.81997 90.2894 9.70201 90.4347C9.58827 90.5759 9.44503 90.6854 9.2723 90.7633C9.09747 90.8413 8.89737 90.8813 8.67409 90.8813Z" fill="#445441"/>
</g>
</g>
</g>
<g id="Group_12">
<g id="Group_13">
<g id="Group_14">
<path id="Vector_10" d="M15.006 90.8629C14.8312 90.8629 14.6964 90.8165 14.6016 90.7281C14.511 90.6333 14.4668 90.4985 14.4668 90.3236V87.1472C14.4668 86.9745 14.511 86.8418 14.6016 86.7512C14.6901 86.6627 14.8165 86.6164 14.9808 86.6164C15.143 86.6164 15.2672 86.6627 15.3515 86.7512C15.44 86.8418 15.4863 86.9745 15.4863 87.1472V87.678H15.402C15.48 87.341 15.6337 87.0861 15.8654 86.9113C16.095 86.7385 16.4005 86.6332 16.7838 86.5995C16.9018 86.5953 16.9945 86.6248 17.0619 86.6922C17.1335 86.7596 17.1756 86.867 17.1883 87.0124C17.1988 87.1535 17.1651 87.2694 17.0872 87.3578C17.0134 87.4421 16.9018 87.4926 16.7501 87.5095L16.5648 87.5263C16.2214 87.56 15.9623 87.6675 15.7896 87.8465C15.6148 88.0213 15.5284 88.2678 15.5284 88.588V90.3236C15.5284 90.4985 15.4821 90.6333 15.3936 90.7281C15.3094 90.8165 15.1788 90.8629 15.006 90.8629Z" fill="#445441"/>
</g>
</g>
</g>
<g id="Group_15">
<g id="Group_16">
<g id="Group_17">
<path id="Vector_11" d="M20.8237 90.8563C20.6552 90.8563 20.5246 90.8057 20.4361 90.7046C20.3455 90.6035 20.3013 90.4645 20.3013 90.2833V87.1995C20.3013 87.0142 20.3455 86.8751 20.4361 86.7783C20.5246 86.6771 20.6552 86.6266 20.8237 86.6266C20.9922 86.6266 21.1207 86.6771 21.2113 86.7783C21.2997 86.8751 21.3461 87.0142 21.3461 87.1995V90.2833C21.3461 90.4645 21.2997 90.6035 21.2113 90.7046C21.127 90.8057 20.9964 90.8563 20.8237 90.8563ZM20.8237 85.8514C20.6257 85.8514 20.4719 85.8051 20.3603 85.7082C20.2529 85.6071 20.2002 85.4702 20.2002 85.2953C20.2002 85.1163 20.2529 84.9794 20.3603 84.8825C20.4719 84.7877 20.6257 84.7393 20.8237 84.7393C21.0259 84.7393 21.1776 84.7877 21.2787 84.8825C21.384 84.9794 21.4388 85.1163 21.4388 85.2953C21.4388 85.4702 21.384 85.6071 21.2787 85.7082C21.1776 85.8051 21.0259 85.8514 20.8237 85.8514Z" fill="#445441"/>
</g>
</g>
</g>
<g id="Group_18">
<g id="Group_19">
<g id="Group_20">
<path id="Vector_12" d="M27.0114 90.8808C26.5437 90.8808 26.1435 90.7944 25.8065 90.6196C25.4737 90.4469 25.2167 90.1983 25.0313 89.8781C24.8502 89.558 24.7617 89.183 24.7617 88.7491C24.7617 88.3236 24.8481 87.9487 25.0229 87.6285C25.202 87.3083 25.4463 87.0598 25.7559 86.8786C26.0635 86.6933 26.4174 86.6006 26.8176 86.6006C27.1083 86.6006 27.3694 86.649 27.6011 86.7438C27.8371 86.8407 28.0351 86.9776 28.1994 87.1567C28.3679 87.3378 28.4943 87.5569 28.5785 87.8139C28.6628 88.0666 28.7049 88.3531 28.7049 88.6733C28.7049 88.7744 28.6712 88.8544 28.6038 88.9092C28.5364 88.9598 28.4374 88.985 28.3089 88.985H25.6127V88.3784H27.9719L27.8371 88.5048C27.8371 88.2478 27.797 88.0308 27.7191 87.856C27.6454 87.6833 27.5359 87.5506 27.3905 87.46C27.2494 87.3652 27.0724 87.3168 26.8597 87.3168C26.6238 87.3168 26.4216 87.3736 26.2531 87.4853C26.0888 87.5927 25.9666 87.7465 25.8823 87.9487C25.7981 88.1467 25.7559 88.3826 25.7559 88.6564V88.7154C25.7559 89.1704 25.8613 89.5137 26.0761 89.7433C26.2889 89.9687 26.6069 90.0804 27.0282 90.0804C27.1735 90.0804 27.3357 90.0635 27.5169 90.0298C27.7023 89.9919 27.875 89.9266 28.0393 89.836C28.1572 89.7686 28.2605 89.7412 28.351 89.7518C28.4395 89.7581 28.5111 89.7897 28.5617 89.8444C28.6122 89.9013 28.6417 89.9708 28.6544 90.0551C28.6649 90.1351 28.6501 90.2152 28.6122 90.2994C28.5722 90.3837 28.5027 90.4574 28.4016 90.5185C28.2036 90.6428 27.9761 90.7355 27.7191 90.7965C27.4663 90.8513 27.2304 90.8808 27.0114 90.8808Z" fill="#445441"/>
</g>
</g>
</g>
<g id="Group_21">
<g id="Group_22">
<g id="Group_23">
<path id="Vector_13" d="M33.6615 90.881C33.3013 90.881 32.9874 90.7947 32.7178 90.6198C32.4482 90.4471 32.2376 90.1985 32.0859 89.8784C31.9342 89.5582 31.8584 89.179 31.8584 88.7409C31.8584 88.2986 31.9342 87.9194 32.0859 87.6035C32.2376 87.2833 32.4482 87.0368 32.7178 86.862C32.9874 86.6893 33.3013 86.6008 33.6615 86.6008C34.0027 86.6008 34.3018 86.6851 34.5546 86.8536C34.8116 87.0221 34.9864 87.2454 35.077 87.5192H34.9843V85.337C34.9843 85.1642 35.0285 85.0315 35.1191 84.941C35.2076 84.8525 35.3382 84.8062 35.5067 84.8062C35.6689 84.8062 35.7953 84.8525 35.8858 84.941C35.9806 85.0315 36.0291 85.1642 36.0291 85.337V90.3249C36.0291 90.4998 35.9827 90.6346 35.8943 90.7294C35.8037 90.8178 35.6773 90.8642 35.5151 90.8642C35.3466 90.8642 35.216 90.8178 35.1275 90.7294C35.037 90.6346 34.9927 90.4998 34.9927 90.3249V89.6677L35.0854 89.9205C35.0012 90.2133 34.8284 90.4471 34.5714 90.6198C34.3124 90.7947 34.009 90.881 33.6615 90.881ZM33.9564 90.0806C34.1628 90.0806 34.3461 90.03 34.504 89.9289C34.6599 89.8278 34.7821 89.6804 34.8663 89.4824C34.9548 89.2865 35.0012 89.04 35.0012 88.7409C35.0012 88.2922 34.9043 87.9573 34.7147 87.7383C34.523 87.515 34.2702 87.4012 33.9564 87.4012C33.7478 87.4012 33.5646 87.4518 33.4087 87.5529C33.2507 87.6498 33.1307 87.7972 33.0464 87.9995C32.9622 88.1975 32.92 88.4439 32.92 88.7409C32.92 89.179 33.0127 89.514 33.1981 89.7436C33.3876 89.9689 33.6404 90.0806 33.9564 90.0806Z" fill="#445441"/>
</g>
</g>
</g>
<g id="Group_24">
<g id="Group_25">
<g id="Group_26">
<path id="Vector_14" d="M41.0178 90.8803C40.7187 90.8803 40.4554 90.8234 40.2258 90.7118C39.9941 90.5938 39.813 90.438 39.6782 90.24C39.5476 90.0441 39.4844 89.8229 39.4844 89.5743C39.4844 89.2773 39.5623 89.0414 39.7203 88.8666C39.8762 88.6875 40.1289 88.5591 40.4786 88.479C40.8325 88.4011 41.3064 88.3611 41.9025 88.3611H42.3238V88.9677H41.911C41.5613 88.9677 41.2832 88.9845 41.0768 89.0182C40.8683 89.052 40.7229 89.1109 40.6387 89.1952C40.5544 89.2752 40.5123 89.3848 40.5123 89.5238C40.5123 89.7091 40.5734 89.8608 40.6977 89.9788C40.8262 90.0967 41.0052 90.1557 41.2369 90.1557C41.4223 90.1557 41.5845 90.1136 41.7256 90.0293C41.8709 89.9409 41.9868 89.8187 42.071 89.667C42.1553 89.5154 42.1974 89.3447 42.1974 89.1531V88.1841C42.1974 87.904 42.1342 87.7017 42.0121 87.5775C41.8878 87.4553 41.6792 87.3921 41.3886 87.3921C41.2243 87.3921 41.0473 87.4132 40.8577 87.4511C40.6724 87.4911 40.4786 87.5585 40.2764 87.6533C40.169 87.7039 40.0742 87.7186 39.9899 87.6954C39.9099 87.6744 39.8488 87.628 39.8045 87.5606C39.7582 87.489 39.7371 87.409 39.7371 87.3247C39.7371 87.2404 39.7582 87.1604 39.8045 87.0804C39.8488 86.9961 39.9246 86.935 40.032 86.895C40.289 86.7897 40.5376 86.7138 40.7735 86.6675C41.0094 86.6233 41.2243 86.6001 41.4223 86.6001C41.8267 86.6001 42.1574 86.6633 42.4165 86.7855C42.6798 86.9097 42.8757 87.0972 43.0063 87.35C43.1348 87.5985 43.2001 87.9187 43.2001 88.3105V90.3242C43.2001 90.499 43.1579 90.6339 43.0737 90.7286C42.9894 90.8171 42.8673 90.8635 42.7114 90.8635C42.5534 90.8635 42.4291 90.8171 42.3407 90.7286C42.2564 90.6339 42.2143 90.499 42.2143 90.3242V89.9198H42.2817C42.2417 90.1178 42.1637 90.2884 42.0458 90.4338C41.932 90.5749 41.7888 90.6844 41.6161 90.7624C41.4412 90.8403 41.2411 90.8803 41.0178 90.8803Z" fill="#445441"/>
</g>
</g>
</g>
<g id="Group_27">
<g id="Group_28">
<g id="Group_29">
<path id="Vector_15" d="M48.3832 90.881C48.023 90.881 47.7091 90.7947 47.4395 90.6198C47.1699 90.4471 46.9592 90.1985 46.8076 89.8784C46.6559 89.5582 46.5801 89.179 46.5801 88.7409C46.5801 88.2986 46.6559 87.9194 46.8076 87.6035C46.9592 87.2833 47.1699 87.0368 47.4395 86.862C47.7091 86.6893 48.023 86.6008 48.3832 86.6008C48.7244 86.6008 49.0235 86.6851 49.2763 86.8536C49.5333 87.0221 49.7081 87.2454 49.7987 87.5192H49.706V85.337C49.706 85.1642 49.7502 85.0315 49.8408 84.941C49.9293 84.8525 50.0599 84.8062 50.2284 84.8062C50.3906 84.8062 50.5169 84.8525 50.6075 84.941C50.7023 85.0315 50.7508 85.1642 50.7508 85.337V90.3249C50.7508 90.4998 50.7044 90.6346 50.6159 90.7294C50.5254 90.8178 50.399 90.8642 50.2368 90.8642C50.0683 90.8642 49.9377 90.8178 49.8492 90.7294C49.7586 90.6346 49.7144 90.4998 49.7144 90.3249V89.6677L49.8071 89.9205C49.7228 90.2133 49.5501 90.4471 49.2931 90.6198C49.034 90.7947 48.7307 90.881 48.3832 90.881ZM48.6781 90.0806C48.8845 90.0806 49.0677 90.03 49.2257 89.9289C49.3816 89.8278 49.5038 89.6804 49.588 89.4824C49.6765 89.2865 49.7228 89.04 49.7228 88.7409C49.7228 88.2922 49.6259 87.9573 49.4364 87.7383C49.2447 87.515 48.9919 87.4012 48.6781 87.4012C48.4695 87.4012 48.2863 87.4518 48.1304 87.5529C47.9724 87.6498 47.8523 87.7972 47.7681 87.9995C47.6838 88.1975 47.6417 88.4439 47.6417 88.7409C47.6417 89.179 47.7344 89.514 47.9198 89.7436C48.1093 89.9689 48.3621 90.0806 48.6781 90.0806Z" fill="#445441"/>
</g>
</g>
</g>
<g id="Group_30">
<g id="Group_31">
<g id="Group_32">
<path id="Vector_16" d="M56.4147 90.8803C55.9471 90.8803 55.5468 90.7939 55.2098 90.6191C54.877 90.4464 54.62 90.1978 54.4347 89.8777C54.2535 89.5575 54.165 89.1825 54.165 88.7486C54.165 88.3231 54.2514 87.9482 54.4262 87.628C54.6053 87.3078 54.8496 87.0593 55.1593 86.8781C55.4668 86.6928 55.8207 86.6001 56.2209 86.6001C56.5116 86.6001 56.7728 86.6485 57.0045 86.7433C57.2404 86.8402 57.4384 86.9771 57.6027 87.1562C57.7712 87.3373 57.8976 87.5564 57.9818 87.8134C58.0661 88.0662 58.1082 88.3526 58.1082 88.6728C58.1082 88.7739 58.0745 88.8539 58.0071 88.9087C57.9397 88.9593 57.8407 88.9845 57.7122 88.9845H55.016V88.3779H57.3752L57.2404 88.5043C57.2404 88.2473 57.2004 88.0303 57.1224 87.8555C57.0487 87.6828 56.9392 87.5501 56.7938 87.4595C56.6527 87.3647 56.4758 87.3163 56.263 87.3163C56.0271 87.3163 55.8249 87.3731 55.6564 87.4848C55.4921 87.5922 55.3699 87.746 55.2856 87.9482C55.2014 88.1462 55.1593 88.3821 55.1593 88.6559V88.7149C55.1593 89.1699 55.2646 89.5133 55.4794 89.7429C55.6922 89.9682 56.0102 90.0799 56.4315 90.0799C56.5769 90.0799 56.7391 90.063 56.9202 90.0293C57.1056 89.9914 57.2783 89.9261 57.4426 89.8355C57.5606 89.7681 57.6638 89.7407 57.7543 89.7513C57.8428 89.7576 57.9144 89.7892 57.965 89.844C58.0155 89.9008 58.045 89.9703 58.0577 90.0546C58.0682 90.1346 58.0535 90.2147 58.0155 90.2989C57.9755 90.3832 57.906 90.4569 57.8049 90.518C57.6069 90.6423 57.3794 90.735 57.1224 90.7961C56.8697 90.8508 56.6337 90.8803 56.4147 90.8803Z" fill="#445441"/>
</g>
</g>
</g>
<g id="Group_33">
<g id="Group_34">
<g id="Group_35">
<path id="Vector_17" d="M62.9898 90.8803C62.7475 90.8803 62.4927 90.855 62.2231 90.8045C61.9576 90.7539 61.7196 90.6676 61.5069 90.5433C61.4163 90.4885 61.351 90.4232 61.3131 90.3495C61.2794 90.2716 61.2646 90.1957 61.271 90.122C61.2815 90.0441 61.3089 89.9767 61.3552 89.9198C61.4058 89.865 61.4669 89.8271 61.5406 89.8103C61.6185 89.7934 61.7028 89.8081 61.7933 89.8524C62.0166 89.9598 62.2252 90.0356 62.4168 90.0799C62.6127 90.1199 62.8065 90.1389 62.9982 90.1389C63.2678 90.1389 63.4658 90.0946 63.5964 90.004C63.7312 89.9093 63.7986 89.785 63.7986 89.6333C63.7986 89.5048 63.7523 89.4058 63.6638 89.3384C63.5796 89.271 63.449 89.2205 63.2763 89.1868L62.4337 89.0267C62.0904 88.9593 61.8271 88.8329 61.6417 88.6475C61.4605 88.4579 61.3721 88.2136 61.3721 87.9145C61.3721 87.6449 61.4437 87.4132 61.5911 87.2152C61.7428 87.0193 61.9471 86.8676 62.2062 86.7602C62.4695 86.6549 62.7728 86.6001 63.1162 86.6001C63.3626 86.6001 63.5922 86.6296 63.8071 86.6844C64.0261 86.7349 64.2368 86.8171 64.439 86.9287C64.5232 86.975 64.578 87.034 64.6075 87.1056C64.6412 87.1794 64.6496 87.2552 64.6328 87.3331C64.6159 87.4069 64.5822 87.4743 64.5317 87.5353C64.4811 87.5922 64.4158 87.628 64.3379 87.6449C64.2642 87.6575 64.1799 87.6407 64.0851 87.5943C63.9103 87.5059 63.7418 87.4406 63.5796 87.4005C63.4216 87.3626 63.2699 87.3416 63.1246 87.3416C62.8487 87.3416 62.6464 87.39 62.518 87.4848C62.3874 87.5817 62.3242 87.7081 62.3242 87.8639C62.3242 87.9819 62.36 88.0809 62.4337 88.1588C62.5116 88.2389 62.6317 88.2915 62.796 88.3189L63.6386 88.479C64.003 88.5464 64.2789 88.6707 64.4643 88.8497C64.6538 89.0309 64.7507 89.2689 64.7507 89.5659C64.7507 89.9767 64.5907 90.2989 64.2705 90.5349C63.9503 90.7666 63.5227 90.8803 62.9898 90.8803Z" fill="#445441"/>
</g>
</g>
</g>
</g>
</svg>
